<?xml version="1.0" encoding="utf-8"?>
<!-- Generator: Adobe Illustrator 27.5.0, SVG Export Plug-In . SVG Version: 6.00 Build 0)  -->
<svg version="1.1" xmlns="http://www.w3.org/2000/svg" xmlns:xlink="http://www.w3.org/1999/xlink" x="0px" y="0px"
	 viewBox="0 0 2500 2500" style="enable-background:new 0 0 2500 2500;" xml:space="preserve">
<g id="Background">
	<rect style="fill:#FFFFFF;" width="2500" height="2500"/>
</g>
<g id="Illustration">
	<g id="Vegan_diet_1_">
		<g>
			<g>
				<g>
					<path style="fill:#FFFFFF;" d="M1212.892,898.044c0,0-112.024,64.808-135.547,61.003c-23.523-3.805-66.9-114.75-135.58-88.663
						c-70.206,26.668-61.197,111.572,45.572,156.481c0,0-64.01,118.881,9.213,137.186c68.004,17.001,99.751-52.894,101.896-79.885
						c4.123-51.881,173.381-61.043,173.381-61.043L1212.892,898.044z"/>
					<path d="M1017.121,1169.066c-6.821,0-13.874-0.906-21.145-2.726c-15.504-3.874-26.279-12.436-32.024-25.443
						c-16.545-37.453,13.491-99.923,20.11-112.863c-56.143-24.271-90.488-62.884-89.815-101.18
						c0.46-26.197,17.474-47.585,46.68-58.677c48.018-18.245,83.202,27.089,108.898,60.179
						c11.363,14.634,21.175,27.271,27.896,28.357c18.616,2.977,103.033-42.807,133.987-60.714c0.573-0.33,1.256-0.41,1.887-0.21
						c0.631,0.196,1.15,0.648,1.432,1.248l58.935,125.08c0.334,0.71,0.294,1.54-0.109,2.216c-0.402,0.676-1.115,1.105-1.899,1.146
						c-1.672,0.092-167.242,9.63-171.155,58.873c-1.444,18.158-15.185,52.144-41.219,70.86
						C1046.75,1164.436,1032.529,1169.066,1017.121,1169.066z M962.53,868.796c-6.391,0-13.028,1.176-19.927,3.796
						c-27.306,10.373-43.209,30.182-43.635,54.347c-0.507,28.886,22.681,69.735,89.283,97.749c0.613,0.258,1.09,0.763,1.311,1.391
						c0.221,0.627,0.168,1.319-0.148,1.905c-0.385,0.717-38.345,72.076-21.142,111.011c5.126,11.604,14.833,19.262,28.849,22.768
						c22.283,5.567,42.37,2.078,59.701-10.382c24.809-17.835,37.898-50.15,39.267-67.399
						c3.951-49.711,147.059-61.345,172.115-63.001l-56.357-119.61c-16.37,9.372-112.412,63.642-134.881,60.008
						c-8.557-1.384-18.405-14.067-30.872-30.124C1025.126,904.247,997.595,868.796,962.53,868.796z"/>
				</g>
				<path d="M1006.707,1091.445c-0.446,0-0.897-0.127-1.298-0.39c-1.088-0.717-1.388-2.182-0.672-3.272
					c0.133-0.201,13.206-20.374,7.159-37.702c-3.311-9.492-11.823-16.548-25.296-20.974c-1.239-0.408-1.914-1.741-1.507-2.982
					c0.408-1.238,1.743-1.916,2.98-1.506c14.955,4.912,24.473,12.962,28.289,23.928c6.804,19.548-7.089,40.937-7.684,41.836
					C1008.225,1091.071,1007.474,1091.445,1006.707,1091.445z"/>
				<path d="M1157.533,913.165c0,0,35.746-35.962,184.169-298.274c60.472-106.873,209.16-205.629,370.003-108.996
					c160.844,96.634,251.212,374.32,80.106,519.881c-171.106,145.561-431.641,41.813-498.727,28.907
					c-58.262-11.209-92.327-9.732-92.327-9.732l10.532-42.197l-38.43-21.966l28.512-40.618L1157.533,913.165z"/>
				<path style="fill:#FFFFFF;" d="M1456.714,849.804c71.721,144.135,207.97,222.114,304.32,174.17
					c96.351-47.944,135.427-209.509,63.706-353.644c-71.722-144.135-227.082-216.259-323.432-168.316
					C1404.958,549.957,1384.993,705.669,1456.714,849.804z"/>
				<path d="M1633.652,775.282c16.557,31.812,43.659,50.48,60.534,41.696c16.875-8.782,17.133-41.691,0.576-73.502
					c-16.557-31.811-43.658-50.48-60.534-41.697C1617.354,710.563,1617.096,743.47,1633.652,775.282z"/>
				<path style="fill:#FFFFFF;" d="M1564.822,1027.932c-0.49,0-0.985-0.152-1.409-0.468
					c-127.371-94.892-170.882-201.788-184.953-274.752c-15.264-79.141-0.113-136.682,0.042-137.254
					c0.341-1.257,1.635-2.016,2.895-1.66c1.259,0.339,2.004,1.635,1.664,2.894c-0.152,0.565-15.036,57.241,0.083,135.367
					c13.949,72.076,57.037,177.706,183.092,271.618c1.046,0.779,1.261,2.258,0.482,3.305
					C1566.254,1027.604,1565.542,1027.932,1564.822,1027.932z"/>
			</g>
			<g>
				<g>
					<path d="M1450.318,1352.202c-26.95,39.085-58.926,45.784-81.799,30.012c-22.873-15.771-27.981-48.04-1.031-87.125
						c26.95-39.085,75.753-70.187,98.626-54.416C1488.987,1256.445,1477.268,1313.117,1450.318,1352.202z"/>
					<path style="fill:#FFFFFF;" d="M1378.615,1369.932c-0.26,0-0.524-0.042-0.782-0.134c-1.23-0.431-1.878-1.778-1.447-3.009
						c20.976-59.798,74.157-107.872,74.692-108.352c0.973-0.872,2.464-0.786,3.335,0.184c0.869,0.971,0.787,2.465-0.185,3.335
						c-0.526,0.47-52.819,47.765-73.384,106.396C1380.503,1369.323,1379.589,1369.932,1378.615,1369.932z"/>
				</g>
				<g>
					<path d="M1550.536,1357.086c-4.022,47.305-28.468,68.978-56.151,66.625c-27.683-2.353-48.12-27.842-44.099-75.147
						c4.022-47.305,30.979-98.514,58.662-96.161C1536.632,1254.756,1554.558,1309.781,1550.536,1357.086z"/>
					<path style="fill:#FFFFFF;" d="M1495.889,1408.351c-1.118,0-2.111-0.796-2.32-1.935
						c-11.439-62.333,10.903-130.451,11.13-131.131c0.412-1.236,1.746-1.907,2.988-1.492c1.237,0.411,1.905,1.748,1.493,2.986
						c-0.224,0.669-22.181,67.669-10.966,128.784c0.236,1.282-0.613,2.514-1.896,2.749
						C1496.174,1408.339,1496.03,1408.351,1495.889,1408.351z"/>
				</g>
				<g>
					<g>
						<g>
							<path style="fill:#FFFFFF;" d="M1245.234,1202.713c0,0-1.223-145.318,271.494-209.673
								c272.716-64.355,375.648-30.814,455.268-185.916l30.838,9.438c0,0,43.092,346.286-256.416,441.313
								C1446.91,1352.901,1245.234,1202.713,1245.234,1202.713z"/>
							<path d="M1548.938,1291.57c-66.832,0-123.263-10.862-166.09-23.374c-87.255-25.493-138.516-63.211-139.024-63.589
								c-0.593-0.44-0.945-1.135-0.951-1.873c-0.013-1.517,0.077-37.651,33.961-82.155c31.058-40.794,97.794-96.434,239.352-129.84
								c72.185-17.032,131.365-27.027,183.579-35.843c141.22-23.847,212.104-35.815,270.13-148.853
								c0.522-1.015,1.701-1.522,2.792-1.178l30.838,9.439c0.89,0.272,1.538,1.042,1.652,1.967
								c0.108,0.869,10.525,88.163-15.957,185.93c-15.57,57.49-40.659,107.33-74.566,148.138
								c-42.406,51.035-98.768,87.971-167.523,109.786C1674.485,1283.174,1607.691,1291.57,1548.938,1291.57z M1247.632,1201.528
								c7.47,5.29,56.846,38.885,136.75,62.196c79.802,23.282,207.269,40.776,361.322-8.101
								c153.702-48.766,214.783-165.401,238.958-254.659c24.335-89.844,17.24-170.65,15.995-182.6l-27.467-8.408
								c-58.933,113.506-130.596,125.613-272.638,149.596c-52.143,8.807-111.244,18.785-183.281,35.785
								c-140.195,33.083-206.088,87.923-236.678,128.101C1251.01,1162.293,1247.946,1195.039,1247.632,1201.528z"/>
						</g>
						<path d="M1549.047,1291.815c-42.548,0-84.679-4.49-126.216-13.486c-1.111-0.24-1.893-1.238-1.861-2.373
							c0.031-1.137,0.867-2.089,1.989-2.267c69.697-11.085,99.783-61.661,89.425-150.327c-4.049-34.662,0.013-55.497,12.785-65.57
							c19.761-15.582,56.516-2.101,103.049,14.959c75.615,27.728,169.724,62.233,244.588-4.914
							c76.449-68.577,103.378-177.169,112.506-256.193c0.08-0.696,0.466-1.319,1.053-1.704c0.586-0.383,1.315-0.489,1.983-0.281
							l15.176,4.644c0.89,0.272,1.538,1.042,1.652,1.967c0.108,0.869,10.525,88.163-15.956,185.93
							c-15.572,57.49-40.659,107.33-74.567,148.138c-42.405,51.035-98.767,87.971-167.522,109.786
							C1680.584,1281.239,1614.328,1291.815,1549.047,1291.815z M1435.261,1276.072c100.91,19.777,205.289,12.911,310.444-20.448
							c153.7-48.766,214.782-165.401,238.957-254.659c24.335-89.844,17.24-170.65,15.995-182.6l-10.985-3.362
							c-9.537,79.582-37.071,187.602-113.712,256.35c-76.978,69.048-176.614,32.513-249.367,5.834
							c-43.364-15.902-80.811-29.633-98.5-15.686c-11.202,8.837-14.806,28.892-11.018,61.313
							c5.834,49.942-1.176,88.716-20.839,115.24C1482.182,1257.014,1461.705,1269.771,1435.261,1276.072z"/>
						<path d="M1548.938,1291.57c-66.832,0-123.263-10.862-166.09-23.374c-87.255-25.493-138.516-63.211-139.024-63.589
							c-0.593-0.44-0.945-1.135-0.951-1.873c-0.013-1.517,0.077-37.651,33.961-82.155c31.058-40.794,97.794-96.434,239.352-129.84
							c72.185-17.032,131.365-27.027,183.579-35.843c141.22-23.847,212.104-35.815,270.13-148.853
							c0.522-1.015,1.701-1.522,2.792-1.178l30.838,9.439c0.89,0.272,1.538,1.042,1.652,1.967
							c0.108,0.869,10.525,88.163-15.957,185.93c-15.57,57.49-40.659,107.33-74.566,148.138
							c-42.406,51.035-98.768,87.971-167.523,109.786C1674.485,1283.174,1607.691,1291.57,1548.938,1291.57z M1247.632,1201.528
							c7.47,5.29,56.846,38.885,136.75,62.196c79.802,23.282,207.269,40.776,361.322-8.101
							c153.702-48.766,214.783-165.401,238.958-254.659c24.335-89.844,17.24-170.65,15.995-182.6l-27.467-8.408
							c-58.933,113.506-130.596,125.613-272.638,149.596c-52.143,8.807-111.244,18.785-183.281,35.785
							c-140.195,33.083-206.088,87.923-236.678,128.101C1251.01,1162.293,1247.946,1195.039,1247.632,1201.528z"/>
						<path d="M1478.527,1263.66c-0.335,0-0.677-0.072-1.001-0.224c-1.181-0.553-1.689-1.96-1.136-3.141
							c26.403-56.325,23.705-109.825-8.021-159.016c-23.704-36.752-55.547-57.098-55.866-57.298
							c-1.102-0.696-1.433-2.154-0.737-3.256c0.698-1.104,2.159-1.432,3.257-0.738c0.328,0.207,33.051,21.114,57.315,58.733
							c22.457,34.821,42.133,91.467,8.327,163.582C1480.265,1263.158,1479.414,1263.66,1478.527,1263.66z"/>
					</g>
					<path d="M1391.056,1123.089c0,10.24-8.301,18.541-18.541,18.541c-10.24,0-18.541-8.301-18.541-18.541
						s8.301-18.541,18.541-18.541C1382.755,1104.548,1391.056,1112.849,1391.056,1123.089z"/>
					<g>
						<path d="M1977.839,831.335c0,0-114.912-49.348-103.457-204.018c0,0,144.623,52.422,117.453,166.355
							c0,0,74.273-78.281,192.843-71.76C2184.677,721.912,2154.744,870.409,1977.839,831.335z"/>
						<path style="fill:#FFFFFF;" d="M2015.6,818.96c-1.443,0-2.244-0.037-2.323-0.042c-1.302-0.072-2.297-1.188-2.224-2.488
							c0.074-1.303,1.25-2.311,2.488-2.225c0.849,0.03,85.113,3.743,144.206-76.263c0.773-1.049,2.251-1.273,3.302-0.498
							c1.049,0.775,1.271,2.253,0.496,3.302C2106.458,815.332,2029.858,818.96,2015.6,818.96z"/>
						<path style="fill:#FFFFFF;" d="M1958.077,804.15c-0.582,0-1.166-0.215-1.622-0.646
							c-64.514-60.986-67.861-139.91-67.888-140.701c-0.043-1.303,0.978-2.394,2.281-2.438c1.332-0.157,2.395,0.975,2.44,2.281
							c0.026,0.77,3.358,77.82,66.412,137.427c0.948,0.895,0.989,2.389,0.094,3.337
							C1959.328,803.901,1958.703,804.15,1958.077,804.15z"/>
					</g>
					<g>
						<path d="M1593.351,1115.495c-9.699,1.446-11.47,14.616-2.647,18.897c21.81,10.582,52.722,35.062,81.739,91.639
							c1.691,3.296,3.373,6.492,5.046,9.591c34.269,63.502,113.971,86.605,177.241,51.911c0,0-68.009,1.48-100.166-75.127
							C1723.892,1139.34,1648.206,1107.317,1593.351,1115.495z"/>
						<path style="fill:#FFFFFF;" d="M1796.793,1292.668c-0.097,0-0.195-0.005-0.294-0.018
							c-40.475-5.016-96.288-28.939-132.338-114.408c-0.573-1.358-1.162-2.756-1.449-3.337c-0.15-0.152-0.281-0.327-0.389-0.526
							c-0.62-1.146-0.195-2.58,0.951-3.201c0.586-0.321,1.312-0.374,1.942-0.155c1.205,0.422,1.402,0.892,3.296,5.382
							c35.173,83.391,89.329,106.694,128.568,111.557c1.294,0.159,2.214,1.34,2.052,2.634
							C1798.985,1291.792,1797.967,1292.668,1796.793,1292.668z M1665.525,1175.329c-0.341,0.187-0.709,0.279-1.072,0.286
							C1664.799,1175.611,1665.164,1175.526,1665.525,1175.329z"/>
					</g>
				</g>
			</g>
			<g>
				<path d="M1553.192,1437.28c-75.628,0-150.896-16.899-221.162-50.454c-123.906-59.173-217.354-163.056-263.127-292.515
					c-45.774-129.457-38.393-268.991,20.78-392.898s163.057-217.354,292.514-263.127c129.455-45.773,268.989-38.393,392.899,20.78
					c58.502,27.938,110.401,65.923,154.255,112.902c0.89,0.955,0.838,2.449-0.115,3.339c-0.949,0.89-2.445,0.842-3.337-0.115
					c-43.449-46.545-94.872-84.182-152.839-111.864c-253.431-121.024-558.084-13.313-679.115,240.119
					c-121.031,253.437-13.313,558.087,240.122,679.117c122.768,58.629,261.021,65.944,389.287,20.588
					c128.268-45.353,231.197-137.941,289.828-260.71c26.691-55.892,42.853-115.242,48.035-176.403
					c0.111-1.303,1.236-2.288,2.553-2.154c1.299,0.108,2.263,1.252,2.154,2.55c-5.231,61.733-21.542,121.635-48.48,178.041
					c-59.173,123.909-163.057,217.357-292.514,263.129C1668.884,1427.422,1610.929,1437.28,1553.192,1437.28z"/>
				<path d="M1929.268,1277.266c-0.609,0-1.216-0.233-1.678-0.701l-715.299-722.538c-0.918-0.925-0.911-2.421,0.016-3.339
					c0.927-0.913,2.424-0.911,3.339,0.018l715.299,722.538c0.918,0.925,0.911,2.421-0.016,3.339
					C1930.47,1277.038,1929.869,1277.266,1929.268,1277.266z"/>
			</g>
		</g>
		<g>
			<g>
				<path d="M387.941,1287.154c11.343-23.921,35.452-37.666,60.319-36.986c1.177-8.083,3.557-16.13,7.239-23.895
					c19.867-41.896,69.935-59.754,111.831-39.887c0.709,0.336,1.393,0.702,2.088,1.056c0.218-3.631,1.114-7.282,2.768-10.77
					c6.923-14.6,24.371-20.823,38.972-13.9c0.336,0.159,0.663,0.33,0.99,0.501c0.837-4.278,2.213-8.523,4.167-12.643
					c12.611-26.596,44.396-37.932,70.992-25.321c2.294,1.088,4.467,2.328,6.529,3.686c0.151-0.337,0.289-0.676,0.448-1.011
					c12.612-26.596,44.396-37.932,70.992-25.321c12.289,5.828,21.311,15.752,26.227,27.364
					c12.492-14.391,33.473-19.35,51.534-10.786c13.415,6.361,22.071,18.694,24.314,32.313c6.09,0.929,12.15,2.737,18.002,5.512
					c20.204,9.581,33.16,28.266,36.289,48.825c3.702,0.998,7.369,2.32,10.955,4.021c17.185,8.149,29.125,22.886,34.236,39.758
					c4.282-0.037,8.897,0.991,13.027,2.949c14.6,6.923,21.082,24.494,14.159,39.094c-0.002,0.005-0.005,0.01-0.007,0.016
					c20.234,24.205,26.081,59.357,11.513,90.078c-9.819,20.707-27.151,35.467-47.093,42.778
					c-16.403,34.203-53.05,52.214-88.748,46.606c-34.647,42.279-97.404,111.573-161.476,146.301
					c-18.881,36.37-63.33,51.539-100.659,33.838c-1.506-0.714-2.974-1.49-4.412-2.288c-21.965,22.294-55.2,30.901-85.819,20.881
					c-23.735,29.889-65.707,40.654-101.673,23.599c-28.084-13.318-45.344-40.209-47.703-69.109
					c-12.287-7.804-17.121-23.719-10.724-37.209c1.527-3.219,3.566-6.031,5.973-8.384c-18.683-15.12-25.351-41.56-14.597-64.238
					c0.255-0.538,0.531-1.06,0.801-1.586c-9.28-8.439-12.396-22.257-6.742-34.178c3.42-7.212,9.41-12.375,16.354-14.924
					c-6.714-13.998-7.294-30.791-0.124-45.911c5.764-12.155,15.537-21.109,26.984-26.06c-0.445-10.198,1.508-20.649,6.186-30.515
					c1.063-2.241,2.248-4.383,3.525-6.442C380.868,1336.257,377.052,1310.118,387.941,1287.154z"/>
				<g>
					<path style="fill:#FFFFFF;" d="M917.823,1368.674c0,0-66.504,124.481-26.372,168.245
						c40.131,43.764,246.369,232.909,246.369,232.909l-128.142,196.07c0,0-146.878-280.522-242.883-314.792
						c-96.005-34.269-249.094-28.855-249.094-28.855l13.831-29.167c0,0,144.385,17.243,144.377-7.889
						c-0.008-25.131-70.009-62.131-119.014-76.489c-0.311-39.471,24.805-89.782,24.805-89.782s119.304,141.628,129.296,104.506
						c9.992-37.122-58.331-141.824-58.331-141.824l41.283-9.599c0,0,64.349,180.064,102.117,148.568
						c37.768-31.496-46.471-137.403-50.283-148.09c14.125-11.061,59.234,62.338,60.066,28.483c0.832-33.855-4.005-69.13-4.005-69.13
						l68.04-7.059c0,0-44.859,110.651-24.745,116.383c20.115,5.733,49.92-89.223,49.92-89.223L917.823,1368.674z"/>
					<path d="M1009.677,1968.26c-0.038,0-0.076,0-0.114-0.002c-0.836-0.042-1.589-0.521-1.977-1.264
						c-1.465-2.797-147.544-280.095-241.585-313.664c-94.486-33.726-246.691-28.768-248.217-28.717
						c-0.824,0.081-1.604-0.374-2.056-1.061c-0.453-0.689-0.514-1.566-0.16-2.311l13.832-29.167c0.435-0.915,1.4-1.455,2.413-1.333
						c33.732,4.026,124.63,11.505,139.936-2.087c1.228-1.091,1.8-2.188,1.8-3.457c-0.007-22.078-64.185-58.656-117.317-74.222
						c-1-0.293-1.689-1.206-1.697-2.248c-0.313-39.581,24.018-88.781,25.054-90.854c0.355-0.713,1.044-1.197,1.833-1.291
						c0.792-0.094,1.574,0.217,2.085,0.823c26.98,32.026,101.419,114.193,121.449,109.719c1.188-0.265,2.87-0.999,3.76-4.305
						c9.605-35.684-57.35-138.882-58.027-139.919c-0.421-0.646-0.502-1.458-0.213-2.172c0.287-0.715,0.905-1.245,1.656-1.418
						l41.283-9.6c1.158-0.27,2.353,0.376,2.759,1.504c0.5,1.402,50.53,140.328,86.704,150.193c4.318,1.172,8.134,0.309,11.675-2.64
						c28.916-24.114-20.171-98.009-41.132-129.565c-6.102-9.185-9.071-13.7-9.862-15.919c-0.341-0.957-0.032-2.025,0.768-2.652
						c8.103-6.362,21.082,6.326,34.82,19.74c8.022,7.834,19.014,18.587,22.508,17.141c0.816-0.33,1.726-2.239,1.833-6.598
						c0.816-33.267-3.936-68.4-3.985-68.75c-0.086-0.634,0.088-1.275,0.482-1.778c0.396-0.505,0.978-0.826,1.614-0.892l68.04-7.059
						c0.822-0.067,1.634,0.27,2.131,0.932c0.498,0.662,0.612,1.538,0.301,2.306c-10.438,25.749-35.899,95.911-28.464,111.145
						c0.74,1.517,1.597,1.914,2.177,2.078c13.059,3.766,35.761-51.796,47.02-87.66c0.228-0.726,0.793-1.298,1.519-1.536
						c0.722-0.235,1.518-0.111,2.133,0.341l22.765,16.733c0.945,0.694,1.237,1.979,0.684,3.014
						c-0.656,1.231-65.258,123.505-26.713,165.54c39.604,43.19,244.162,230.872,246.224,232.763c0.852,0.782,1.014,2.066,0.38,3.032
						l-128.142,196.069C1011.217,1967.858,1010.472,1968.26,1009.677,1968.26z M540.133,1619.608
						c46.31,0,154.022,3.062,227.456,29.275c91.027,32.492,224.167,278.227,242.306,312.368l124.853-191.038
						c-18.671-17.143-207.083-190.309-245.036-231.698c-38.595-42.09,16.68-152.96,25.077-169.142l-18.478-13.583
						c-6.917,21.483-31.743,93.406-51.819,87.644c-2.242-0.639-3.966-2.17-5.129-4.55c-8.942-18.322,19.295-92.233,26.875-111.35
						l-61.746,6.404c1.057,8.574,4.42,38.495,3.717,67.088c-0.054,2.228-0.221,9.005-4.773,10.859
						c-6.057,2.444-14.429-5.288-27.587-18.137c-8.981-8.77-20.858-20.471-26.819-20.053c1.607,2.776,4.784,7.559,8.326,12.891
						c23.497,35.372,72.39,108.979,40.223,135.803c-4.748,3.96-10.111,5.154-15.944,3.572
						c-36.497-9.953-82.653-133.244-89.193-151.18l-35.974,8.366c11.076,17.371,66.147,106.21,56.811,140.897
						c-1.437,5.334-4.761,7.126-7.297,7.688c-0.717,0.159-1.486,0.238-2.293,0.238c-27.342,0.012-104.512-88.859-121.424-108.728
						c-5.339,11.51-22.636,51.256-23.002,83.703c50.265,15.091,119.003,51.667,119.011,78.251c0.001,2.641-1.139,4.993-3.386,6.987
						c-18.975,16.848-126.474,5.219-141.944,3.443l-11.459,24.165C525.259,1619.71,531.675,1619.608,540.133,1619.608z"/>
				</g>
				<path d="M734.908,1323.55c0.282-3.412,1.167-6.833,2.721-10.109c6.04-12.738,20.099-19.091,33.28-15.889
					c0.592-6.939,2.406-13.891,5.565-20.553c14.171-29.885,49.886-42.623,79.77-28.452c21.594,10.24,34.227,31.727,34.234,54.136
					c16.346-12.492,38.925-15.639,58.793-6.217c26,12.329,38.284,41.867,29.721,68.537c4.281,7.915,4.865,17.691,0.714,26.444
					c-6.916,14.585-24.346,20.802-38.931,13.886c-1.341-0.636-2.61-1.362-3.806-2.166c-11.818,2.569-24.543,1.408-36.316-4.175
					c-19.966-9.467-31.836-29.087-32.401-49.759c-17.34,14.003-41.84,17.725-63.326,7.536c-6.884-3.265-12.846-7.683-17.791-12.899
					c-5.057,6.536-12.59,10.512-20.584,11.209c-0.282,3.412-1.168,6.833-2.721,10.109c-6.916,14.585-24.346,20.802-38.931,13.886
					c-14.585-6.916-20.802-24.346-13.886-38.931C715.625,1330.42,724.909,1324.423,734.908,1323.55z"/>
				<path style="fill:#FFFFFF;" d="M953.248,1410.51c-4.53,0-9.127-0.978-13.485-3.044c-1.115-0.528-2.208-1.128-3.263-1.789
					c-12.542,2.516-25.264,0.948-36.859-4.55c-18.86-8.943-31.383-26.84-33.465-47.389c-18.165,12.607-42.129,14.713-62.262,5.165
					c-6.176-2.929-11.763-6.803-16.644-11.537c-4.865,5.278-11.447,8.77-18.584,9.838c-0.451,3.113-1.364,6.132-2.724,8.998
					c-3.615,7.624-9.982,13.382-17.93,16.219c-7.949,2.832-16.524,2.403-24.146-1.213c-7.624-3.614-13.384-9.981-16.218-17.93
					c-0.438-1.229,0.203-2.58,1.431-3.019c1.227-0.436,2.579,0.203,3.017,1.432c2.411,6.759,7.309,12.176,13.793,15.25
					c6.485,3.074,13.779,3.445,20.536,1.028c6.759-2.41,12.175-7.308,15.249-13.792c1.394-2.938,2.236-6.063,2.503-9.291
					c0.095-1.148,1.002-2.059,2.148-2.158c7.464-0.65,14.36-4.405,18.921-10.303c0.422-0.544,1.061-0.879,1.749-0.913
					c0.708-0.046,1.358,0.235,1.832,0.733c4.899,5.168,10.648,9.337,17.089,12.393c19.848,9.409,43.727,6.57,60.83-7.241
					c0.701-0.565,1.657-0.682,2.473-0.307c0.815,0.376,1.347,1.183,1.371,2.08c0.564,20.6,12.462,38.875,31.053,47.691
					c10.943,5.186,22.978,6.57,34.802,3.999c0.627-0.131,1.282-0.012,1.817,0.348c1.118,0.749,2.298,1.421,3.503,1.992
					c13.385,6.344,29.437,0.62,35.786-12.764c0.559-1.181,1.965-1.679,3.145-1.121c1.178,0.558,1.68,1.967,1.121,3.145
					C976.444,1403.838,965.077,1410.51,953.248,1410.51z"/>
				<path d="M511.172,1551.721c7.178-9.62,20.366-13.177,31.628-7.836c12.838,6.088,18.31,21.43,12.223,34.268
					c-1.271,2.681-2.95,5.035-4.921,7.035c5.889,14.28,5.961,30.898-1.179,45.955c-13.426,28.312-47.26,40.379-75.572,26.954
					c-28.312-13.425-40.38-47.26-26.954-75.572C458.148,1557.742,485.537,1545.407,511.172,1551.721z"/>
				<path style="fill:#FFFFFF;" d="M498.655,1666.451c-8.641,0-17.242-1.919-25.281-5.73c-16.175-7.67-27.879-22.055-32.112-39.466
					c-0.308-1.268,0.469-2.544,1.737-2.853c1.268-0.309,2.545,0.468,2.853,1.737c3.895,16.02,14.664,29.257,29.547,36.316
					c13.121,6.224,27.88,6.96,41.563,2.085c13.68-4.88,24.64-14.796,30.862-27.919c6.558-13.829,6.971-29.882,1.131-44.041
					c-0.362-0.874-0.165-1.882,0.5-2.557c1.84-1.868,3.344-4.017,4.47-6.39c4.378-9.233,2.306-20.12-5.158-27.089
					c-0.952-0.89-1.004-2.382-0.114-3.337c0.89-0.955,2.386-1.005,3.338-0.113c8.972,8.378,11.464,21.462,6.2,32.564
					c-1.129,2.38-2.575,4.573-4.309,6.54c5.75,15.035,5.118,31.876-1.792,46.448c-6.762,14.263-18.675,25.039-33.543,30.341
					C512.059,1665.3,505.345,1666.451,498.655,1666.451z"/>
				<path d="M537.878,1416.977c-5.073-11.516-5.315-25.083,0.501-37.345c9.275-19.56,30.863-29.318,51.102-24.408
					c0.858-4.972,2.381-9.912,4.649-14.693c13.425-28.312,47.26-40.38,75.572-26.955c28.311,13.425,40.38,47.26,26.954,75.572
					c-13.425,28.312-47.26,40.38-75.572,26.954c-0.196-0.093-0.382-0.197-0.577-0.291c-0.314,0.767-0.646,1.531-1.005,2.29
					c-6.621,13.962-19.514,22.928-33.713,25.133c10.116,15.909,12.097,36.501,3.423,54.795
					c-13.425,28.312-47.26,40.38-75.572,26.954c-28.311-13.425-40.38-47.26-26.954-75.572
					C496.371,1428.984,516.682,1417.018,537.878,1416.977z"/>
				<path style="fill:#FFFFFF;" d="M538.891,1530.775c-8.641,0-17.242-1.919-25.281-5.731c-7.205-3.415-13.53-8.143-18.794-14.053
					c-0.868-0.973-0.782-2.465,0.193-3.334c0.973-0.867,2.464-0.782,3.333,0.194c4.843,5.433,10.66,9.782,17.292,12.928
					c27.091,12.845,59.581,1.259,72.427-25.832c8.054-16.986,6.827-36.618-3.283-52.518c-0.428-0.671-0.488-1.515-0.159-2.239
					c0.329-0.726,1.002-1.238,1.789-1.361c13.958-2.168,25.899-11.069,31.942-23.81c0.34-0.719,0.655-1.441,0.952-2.17
					c0.247-0.604,0.732-1.079,1.342-1.312c0.61-0.238,1.287-0.208,1.875,0.081l0.551,0.277c13.131,6.229,27.889,6.967,41.57,2.089
					c13.679-4.88,24.64-14.793,30.864-27.917c9.591-20.226,5.649-44.689-9.809-60.873c-0.901-0.943-0.867-2.438,0.076-3.337
					c0.943-0.906,2.438-0.869,3.339,0.076c16.799,17.586,21.084,44.175,10.661,66.158c-13.708,28.899-47.989,41.564-77.091,28.816
					c-0.022,0.046-0.043,0.09-0.063,0.136c-6.219,13.112-18.06,22.565-32.096,25.8c9.344,16.716,10.067,36.701,1.806,54.127
					c-6.765,14.263-18.677,25.037-33.545,30.341C552.295,1529.624,545.581,1530.775,538.891,1530.775z"/>
				<g>
					<path style="fill:#FFFFFF;" d="M471.711,1578.981c-5.165,10.892-0.522,23.908,10.369,29.073
						c10.892,5.165,23.909,0.522,29.073-10.37c5.165-10.892,0.522-23.908-10.37-29.073
						C489.892,1563.446,476.875,1568.089,471.711,1578.981z"/>
					<path style="fill:#FFFFFF;" d="M442.848,1525.497c-3.232,6.816-0.327,14.961,6.489,18.193
						c6.816,3.232,14.961,0.327,18.193-6.489c3.232-6.816,0.327-14.961-6.489-18.193
						C454.225,1515.776,446.08,1518.681,442.848,1525.497z"/>
				</g>
				<path style="fill:#FFFFFF;" d="M930.758,1306.08c-4.746,10.009-0.48,21.971,9.529,26.717c10.009,4.746,21.971,0.48,26.717-9.529
					c4.747-10.009,0.48-21.971-9.529-26.717C947.467,1291.804,935.505,1296.071,930.758,1306.08z"/>
				<path style="fill:#FFFFFF;" d="M910.699,1364.432c-2.984,6.292-0.302,13.81,5.99,16.794c6.292,2.984,13.81,0.302,16.794-5.99
					c2.983-6.292,0.302-13.81-5.99-16.794C921.201,1355.459,913.683,1358.141,910.699,1364.432z"/>
				<g>

						<ellipse transform="matrix(0.4285 -0.9036 0.9036 0.4285 -1075.7456 2043.8418)" style="fill:#FFFFFF;" cx="1077.709" cy="1872.258" rx="119.307" ry="71.635"/>
					<path d="M1046.365,1986.761c-7.355,0-14.345-1.513-20.788-4.568c-36.864-17.482-43.472-81.021-14.729-141.64
						c13.835-29.176,33.698-53.394,55.93-68.19c22.598-15.04,44.996-18.603,63.061-10.038c36.866,17.482,43.474,81.021,14.73,141.64
						c-13.835,29.174-33.698,53.392-55.93,68.19C1074.099,1981.833,1059.639,1986.761,1046.365,1986.761z M1109.048,1762.486
						c-12.345,0-25.911,4.661-39.652,13.809c-21.529,14.33-40.806,37.868-54.28,66.283c-27.628,58.265-22.027,118.98,12.486,135.349
						c16.507,7.824,37.255,4.384,58.42-9.704c21.529-14.33,40.806-37.87,54.28-66.283c27.628-58.265,22.026-118.983-12.487-135.349
						C1122.027,1763.847,1115.715,1762.486,1109.048,1762.486z"/>
				</g>
				<path d="M1053.612,1969.12c-4.912,0-9.548-0.996-13.795-3.009c-13.189-6.252-21.066-21.4-22.181-42.65
					c-1.086-20.727,4.387-44.947,15.414-68.199c7.851-16.555,18.018-31.471,29.402-43.137c0.914-0.936,2.409-0.95,3.339-0.042
					c0.934,0.911,0.952,2.405,0.042,3.339c-11.025,11.297-20.886,25.775-28.517,41.864c-10.696,22.555-16.01,45.969-14.963,65.928
					c1.018,19.435,7.94,33.154,19.487,38.631c10.785,5.112,24.804,2.486,39.47-7.405c1.082-0.726,2.549-0.445,3.278,0.636
					c0.729,1.082,0.444,2.551-0.638,3.279C1073.381,1965.483,1062.994,1969.12,1053.612,1969.12z"/>
				<path d="M1131.552,1801.982c-0.653,0-1.302-0.27-1.769-0.796c-2.501-2.823-5.41-5.034-8.644-6.568
					c-5.37-2.546-11.504-3.201-18.237-1.937c-1.287,0.226-2.516-0.604-2.756-1.889c-0.24-1.282,0.604-2.514,1.886-2.756
					c7.733-1.448,14.842-0.669,21.13,2.315c3.813,1.808,7.229,4.4,10.156,7.702c0.865,0.975,0.775,2.468-0.202,3.332
					C1132.667,1801.786,1132.109,1801.982,1131.552,1801.982z"/>
			</g>
			<g>
				<g>
					<path style="fill:#FFFFFF;" d="M778.667,1632.765c-0.198,1.487-0.298,2.981-0.298,4.481
						c0,66.968,199.132,121.257,444.774,121.257s440.231-48.399,440.231-115.367c0-66.968-194.589-127.147-440.231-127.147
						C983.003,1515.989,787.313,1567.873,778.667,1632.765z"/>
					<path d="M1223.143,1760.863c-119.008,0-230.922-12.642-315.124-35.599c-85.129-23.208-132.012-54.467-132.012-88.02
						c0-1.591,0.107-3.203,0.319-4.792c8.878-66.631,205.144-118.826,446.816-118.826c117.516,0,228.64,13.693,312.898,38.557
						c83.635,24.679,129.693,56.98,129.693,90.953c0,33.279-46.086,63.495-129.772,85.082
						C1454.36,1749.27,1343.265,1760.863,1223.143,1760.863z M1223.143,1518.349c-115.745,0-225.287,12.065-308.447,33.975
						c-82.155,21.645-129.635,50.323-133.689,80.751c-0.185,1.384-0.278,2.786-0.278,4.169c0,30.774,46.847,61.196,128.531,83.463
						c83.809,22.848,195.282,35.432,313.882,35.432c119.735,0,230.411-11.54,311.641-32.495
						c81.4-20.999,126.228-49.589,126.228-80.509c0-31.235-46.037-62.736-126.307-86.424
						C1450.867,1531.974,1340.219,1518.349,1223.143,1518.349z M778.667,1632.764h0.024H778.667z"/>
				</g>
				<g>
					<path style="fill:#FFFFFF;" d="M789.576,1680.258c0,65.528,194.85,118.649,435.211,118.649
						c240.36,0,430.765-47.358,430.765-112.886s-190.405-124.413-430.765-124.413
						C984.426,1561.608,789.576,1614.73,789.576,1680.258z"/>
					<path d="M1224.787,1801.269c-116.453,0-225.965-12.372-308.362-34.835c-83.322-22.717-129.21-53.321-129.21-86.177
						c0-32.854,45.888-63.458,129.21-86.175c82.399-22.463,191.911-34.835,308.362-34.835c114.995,0,223.734,13.4,306.187,37.729
						c81.858,24.156,126.94,55.779,126.94,89.046c0,32.587-45.11,62.171-127.019,83.301
						C1451.04,1789.924,1342.329,1801.269,1224.787,1801.269z M1224.787,1563.97c-116.045,0-225.115,12.312-307.119,34.669
						c-79.903,21.783-125.73,51.531-125.73,81.618c0,30.087,45.827,59.837,125.73,81.62
						c82.004,22.357,191.075,34.669,307.119,34.669c117.155,0,225.447-11.293,304.928-31.796
						c79.624-20.54,123.476-48.501,123.476-78.729c0-30.541-45.034-61.346-123.555-84.514
						C1447.605,1577.301,1339.341,1563.97,1224.787,1563.97z"/>
				</g>
				<g>
					<g>
						<path style="fill:#FFFFFF;" d="M778.368,1637.246c0,66.968,196.943,115.025,442.585,115.025
							c218.885,0,399.459-38.758,436.289-94.865c1.278-1.948,4.319-0.765,4.009,1.544l-16.428,122.506
							c-33.616,141.569-199.915,226.889-376.018,239.458c-68.174,4.866-56.104,6.82-129.284,0
							c-166.286-15.497-304.944-113.863-335.84-241.976l-28.62-132.746C775.062,1641.672,778.368,1636.012,778.368,1637.246z"/>
						<path d="M1202.354,2027.698c-13.716,0-29.334-1.291-63.051-4.432c-168.125-15.67-307.08-115.911-337.917-243.775
							l-28.633-132.803c-0.036-0.164-0.053-0.33-0.053-0.498c0-3.328,2.417-11.477,5.585-11.477c0.626,0,1.268,0.334,1.711,0.777
							c0.443,0.443,0.733,1.128,0.733,1.755c0,30.857,45.245,59.388,127.399,80.338c81.747,20.847,192.844,32.326,312.826,32.326
							c219.464,0,398.061-38.571,434.314-93.799c1.183-1.806,3.341-2.502,5.373-1.753c2.024,0.756,3.238,2.772,2.952,4.905
							l-16.428,122.506c-16.042,67.606-62.953,126.247-135.704,169.815c-66.474,39.809-152.591,65.268-242.487,71.683
							c-12.73,0.909-22.661,1.716-30.871,2.384C1222.371,2026.93,1212.927,2027.698,1202.354,2027.698z M778.248,1649.767
							l27.742,128.673c30.357,125.873,167.606,224.639,333.751,240.122c59.298,5.53,62.221,5.288,97.979,2.382
							c8.222-0.667,18.167-1.476,30.917-2.385c160.741-11.475,338.688-89.408,373.889-237.65l16.298-121.619
							c-37.959,56.171-217.686,95.341-437.87,95.341c-120.364,0-231.875-11.533-313.993-32.471
							C833.261,1703.366,788.457,1678.002,778.248,1649.767z"/>
					</g>
				</g>
				<ellipse cx="1488.419" cy="1640.376" rx="35.195" ry="13.687"/>
				<path d="M1273.339,1702.945c0,7.559,15.757,13.687,35.195,13.687c19.438,0,35.195-6.128,35.195-13.687
					s-15.757-13.687-35.195-13.687C1289.096,1689.258,1273.339,1695.386,1273.339,1702.945z"/>
				<path d="M1144.291,1611.047c0,7.559,15.757,13.687,35.195,13.687c19.438,0,35.195-6.128,35.195-13.687
					c0-7.559-15.757-13.687-35.195-13.687C1160.048,1597.36,1144.291,1603.488,1144.291,1611.047z"/>
				<path d="M1042.617,1693.169c0,7.559,15.757,13.687,35.195,13.687c19.438,0,35.195-6.128,35.195-13.687
					c0-7.559-15.757-13.687-35.195-13.687C1058.374,1679.482,1042.617,1685.609,1042.617,1693.169z"/>
				<path d="M1297.676,1551.773c-5.093,3.795-5.828,32.188-7.335,44.445c0.05-4.695-4.15-25.311-9.283-26.562
					c-5.133-1.251-4.303,8.004-8.236,9.552c-3.932,1.549-5.56-11.816-9.475-6.967c-3.915,4.849,0.106,10.679-1.482,14.18
					c-1.587,3.501-5.718-7.063-9.297-1.542c-3.579,5.521,8.562,15.572,4.775,17.324c-3.786,1.752-6.832-6.403-8.761-1.538
					c-1.929,4.864,32.9,58.492,36.025,56.422c7.453-4.936,23.354-2.647,32.128-0.935c8.774,1.712,16.908,5.739,24.794,9.949
					c2.053,1.096,4.624,2.198,6.567,0.918c1.756-1.156,1.948-3.801,0.986-5.671c-0.962-1.869-4.718-3.061-1.785-4.697
					c2.933-1.636,7.093-1.135,11.987-1.879c0.896-0.136,1.857-0.304,2.496-0.946c1.811-1.818-0.767-4.793-3.261-5.397
					c-2.493-0.604-7.301-1.038-8.478-3.317c0.888-2.215,6.305-3.243,8.577-3.974c2.272-0.731,4.147-3.541,3.639-5.873
					c-0.943-4.328-15.025-4.956-15.822-8.364c-0.797-3.407,12.825-3.992,5.821-10.936c-7.584-7.518-13.967-2.484-37.945,9.543
					c-0.662,0.301-1.295,0.639-1.922,0.985c10.089-11.668,15.208-19.125,25.807-30.039c1.785-1.838,8.568-9.019,5.816-14.223
					c-2.752-5.204-9.438,6.129-9.479,1.913c-0.061-6.197,9.173-11.134,6.17-16.575s-8.108,2.573-9.231,0.103
					c-1.123-2.471,4.05-11.511,1.166-15.961c-2.885-4.45-9.665,3.701-13.149,3.635c-3.484-0.066-0.427-9.256-1.384-10.71
					c-1.767-2.686-4.356-2.181-6.855-0.158c-2.499,2.023-3.718,7.612-6.376,11.052
					C1302.216,1558.969,1302.769,1547.978,1297.676,1551.773z"/>
				<path d="M888.311,1654.074c-0.758,0-1.5-0.362-1.957-1.038c-0.732-1.079-0.45-2.546,0.63-3.279
					c74.973-50.802,141.247-68.81,196.977-53.51c22.93,6.293,36.136,15.803,51.426,26.817c1.78,1.282,3.589,2.585,5.446,3.906
					c1.063,0.754,1.311,2.23,0.556,3.293c-0.756,1.058-2.228,1.317-3.293,0.553c-1.863-1.324-3.68-2.633-5.469-3.92
					c-14.92-10.746-27.805-20.028-49.916-26.097c-54.341-14.911-119.3,2.871-193.077,52.868
					C889.228,1653.943,888.767,1654.074,888.311,1654.074z"/>
				<path d="M1307.283,1687.54c-39.07,0-79.251-13.878-98.992-20.697c-5.748-1.985-11.346-4.086-16.644-6.247
					c-1.208-0.491-1.787-1.87-1.295-3.079c0.49-1.208,1.864-1.792,3.077-1.294c5.22,2.129,10.736,4.197,16.396,6.153
					c30.909,10.675,112.993,39.03,158.926,2.006c12.286-9.902,19.657-17.542,26.16-24.283c2.591-2.687,5.038-5.221,7.66-7.774
					c0.934-0.909,2.427-0.888,3.339,0.046c0.91,0.934,0.889,2.428-0.046,3.339c-2.568,2.5-4.99,5.009-7.553,7.668
					c-6.6,6.84-14.08,14.593-26.596,24.679C1353.735,1682.549,1330.708,1687.54,1307.283,1687.54z"/>
				<path d="M1591.05,1663.746c-0.586,0-1.172-0.217-1.628-0.65c-60.368-57.497-127.346-56.065-154.332-47.272
					c-1.235,0.406-2.573-0.272-2.976-1.515c-0.405-1.241,0.273-2.571,1.514-2.977c27.908-9.093,97.071-10.689,159.05,48.342
					c0.944,0.902,0.981,2.396,0.082,3.339C1592.296,1663.499,1591.673,1663.746,1591.05,1663.746z"/>
				<path d="M1004.947,1630.448l-20.897-1.9c-1.448-0.132-2.89,0.302-4.025,1.21l-23.598,18.879
					c-3.207,2.566-2.675,7.592,0.999,9.428l17.597,8.799c2.127,1.064,4.694,0.675,6.411-0.971l26.898-25.777
					C1011.817,1636.776,1009.755,1630.885,1004.947,1630.448z"/>
				<path d="M1216.297,1709.874l-58.401-33.743c-0.276-0.159-0.579-0.268-0.893-0.321l-9.334-1.556
					c-2.665-0.444-4.217,2.908-2.155,4.653l34,28.769c0.348,0.294,0.765,0.494,1.212,0.581l33.736,6.53
					C1217.406,1715.358,1218.894,1711.375,1216.297,1709.874z"/>
				<path d="M1525.105,1680.98l-48.493-8.313l-37.071,16.118l32.236,20.953l53.913-24.119
					C1527.894,1684.633,1527.485,1681.388,1525.105,1680.98z"/>
			</g>
			<g>
				<g>
					<path d="M978.779,1942.786c0,0-42.987,143.414-228.771,145.757c-201.432,2.541-304.564-220.449-263.707-384.222
						c20.697-82.963,61.988-96.962,61.988-96.962L978.779,1942.786z"/>
					<path style="fill:#FFFFFF;" d="M746.496,2090.927c-99.746,0-163.149-53.494-198.907-98.681
						c-62.608-79.111-87.564-192.354-63.579-288.498c20.769-83.255,61.785-98.039,63.52-98.627c0.751-0.251,1.583-0.115,2.21,0.374
						l430.49,335.428c0.768,0.6,1.09,1.607,0.81,2.541c-0.445,1.485-11.297,36.802-45.258,72.938
						c-31.307,33.313-88.945,73.282-185.745,74.501C748.857,2090.918,747.667,2090.927,746.496,2090.927z M547.924,1610.068
						c-6.654,3.028-41.153,21.958-59.331,94.825c-23.644,94.774,0.967,206.419,62.699,284.423
						c35.107,44.361,97.359,96.889,195.215,96.889c1.154,0,2.307-0.009,3.471-0.023c95.141-1.199,151.684-40.367,182.365-73.012
						c29.303-31.18,41.208-62.395,43.673-69.543L547.924,1610.068z"/>
				</g>
				<g>
					<path style="fill:#FFFFFF;" d="M947.06,1984.155c0,0-127.689,125.379-306.053-62.396
						c-178.363-187.775-129.544-323.667-70.806-319.8c58.738,3.866,155.651,97.871,284.196,157.238
						C982.943,1818.564,1018.826,1919.071,947.06,1984.155z"/>
					<path d="M836.165,2027.511c-1.012,0-2.025-0.009-3.049-0.028c-64.056-1.114-129.268-36.138-193.821-104.1
						c-124.423-130.988-139.892-238.635-115.332-291.016c10.201-21.758,27.51-34.007,46.394-32.764
						c32.272,2.124,74.656,30.145,128.315,65.623c45.745,30.244,97.593,64.523,156.716,91.827
						c74.203,34.27,121.341,83.827,129.327,135.965c5.292,34.556-7.171,66.666-36.041,92.862
						C947.107,1987.384,904.51,2027.511,836.165,2027.511z M567.772,1604.241c-15.961,0-30.612,11.104-39.533,30.131
						c-23.929,51.035-8.304,156.498,114.48,285.761c63.649,67.007,127.735,101.538,190.479,102.631
						c69.078,1.128,111.783-39.876,112.207-40.294c0.022-0.021,0.045-0.042,0.068-0.065c27.66-25.083,39.616-55.746,34.572-88.672
						c-7.741-50.542-53.899-98.798-126.639-132.39c-59.448-27.456-111.455-61.841-157.339-92.177
						c-53.076-35.091-94.999-62.807-126.021-64.848C569.286,1604.266,568.526,1604.241,567.772,1604.241z"/>
				</g>
				<path d="M854.397,1900.732c0,0-34.963,45.397-126.895-26.373c-91.932-71.769-42.106-141.874,37.936-113.9
					C845.48,1788.435,876.714,1860.462,854.397,1900.732z"/>
				<path style="fill:#FFFFFF;" d="M839.427,1849.445c-0.951,0-1.847-0.579-2.207-1.52c-11.506-30.179-40.739-56.014-78.199-69.105
					c-9.888-3.457-19.332-5.209-28.069-5.209c-1.304,0-2.361-1.056-2.361-2.361c0-1.305,1.057-2.361,2.361-2.361
					c9.269,0,19.237,1.843,29.628,5.472c38.758,13.548,69.058,40.418,81.054,71.882c0.465,1.22-0.148,2.583-1.365,3.049
					C839.992,1849.397,839.707,1849.445,839.427,1849.445z"/>
			</g>
		</g>
		<g>
			<g>
				<path style="fill:#FFFFFF;" d="M796.468,972.792L665.25,990.894c-16.171,2.231-29.564,13.681-34.292,29.318l-24.022,79.447
					l-53.253-71.522c-9.102-12.224-24.127-18.523-39.216-16.441l-120.679,16.649c-22.864,3.154-43.954-12.838-47.105-35.72
					l-35.311-256.359c-3.152-22.882,12.828-43.989,35.692-47.143l402.679-55.554c22.864-3.154,43.954,12.839,47.106,35.721
					l35.31,256.359C835.311,948.531,819.331,969.637,796.468,972.792z"/>
				<path d="M606.937,1102.02c-0.738,0-1.444-0.346-1.894-0.95l-53.254-71.522c-8.585-11.532-22.763-17.466-36.998-15.513
					l-120.679,16.647c-11.688,1.619-23.294-1.425-32.695-8.553c-9.4-7.128-15.462-17.491-17.073-29.183l-35.31-256.359
					c-3.325-24.135,13.591-46.476,37.708-49.804l402.679-55.553c11.685-1.621,23.293,1.423,32.695,8.553
					c9.399,7.128,15.462,17.491,17.073,29.183l35.31,256.359c3.325,24.135-13.591,46.476-37.708,49.804l-131.216,18.103
					c-15.21,2.101-27.909,12.958-32.355,27.663l-24.022,79.446c-0.258,0.855-0.974,1.49-1.853,1.644
					C607.208,1102.009,607.071,1102.02,606.937,1102.02z M520.182,1008.943c13.822,0,26.996,6.503,35.396,17.782l50.455,67.766
					l22.666-74.96c4.978-16.467,19.198-28.625,36.229-30.975l131.216-18.103c21.539-2.972,36.645-22.927,33.675-44.481
					l-35.31-256.359c-1.438-10.444-6.852-19.701-15.248-26.065c-8.394-6.365-18.765-9.077-29.196-7.64l-402.679,55.553
					c-21.538,2.973-36.645,22.927-33.675,44.481l35.31,256.359c1.438,10.444,6.852,19.701,15.248,26.065
					c8.393,6.367,18.762,9.072,29.196,7.64l120.679-16.647C516.161,1009.08,518.179,1008.943,520.182,1008.943z M796.467,972.792
					h0.024H796.467z"/>
			</g>
			<path d="M630.196,771.583c-10.251-8.612-23.288-12.406-36.713-10.682c-10.034,1.289-18.817,5.644-26.104,12.944
				c-3.677,3.685-6.88,8.026-9.563,12.958c-3.839-4.093-8.035-7.485-12.523-10.121c-8.892-5.222-18.489-7.217-28.523-5.928
				c-13.424,1.724-25.084,8.689-32.83,19.613c-7.654,10.795-10.861,24.613-9.028,38.908c1.887,14.713,9.092,27.478,22.676,40.173
				c12.152,11.355,28.929,22.312,48.357,34.999c6.634,4.333,14.154,9.244,21.982,14.499c2.068,1.391,4.569,1.982,7.044,1.664
				c2.473-0.318,4.746-1.521,6.394-3.387c6.249-7.064,12.29-13.719,17.618-19.591c15.596-17.182,29.066-32.022,37.959-46.081
				c9.941-15.714,13.692-29.886,11.806-44.601C646.915,792.654,640.326,780.094,630.196,771.583z"/>
		</g>
		<g>
			<path d="M1375.295,1967.256c0,0,45.546,42.767,128.871,57.899c4.551,0.827,7.977-19.278,12.714-18.636
				c6.098,0.825,19.608,23.75,26.003,24.222c53.724,3.976,117.658-5.38,187.711-43.165c0,0-19.865-16.105-54.202-32.144
				c-3.97-1.855-22.408,9.251-26.757,7.423c-4.136-1.739,5.834-16.413,1.37-18.083
				C1585.83,1920.386,1486.485,1905.571,1375.295,1967.256z"/>
			<g>
				<g>
					<path style="fill:#FFFFFF;" d="M1295.696,1968.374c0,0,66.156,154.876,263.883,184.549c4.894,0.734,10.4-20.495,15.439-19.923
						c5.053,0.573,22.611,27.926,27.812,28.327c24.853,1.917,51.398,1.816,79.7-0.783
						C1682.529,2160.544,1565.746,1940.346,1295.696,1968.374z"/>
					<path d="M1637.454,2165c-11.783,0-23.405-0.44-34.806-1.319c-3.305-0.256-7.374-4.852-15.87-15.28
						c-3.961-4.861-9.899-12.151-11.963-13.018c-1.388,0.694-4.045,5.915-5.491,8.756c-3.205,6.298-5.972,11.724-10.096,11.12
						c-102.791-15.427-169.538-65.12-207.432-104.093c-41.086-42.254-58.104-81.475-58.271-81.867
						c-0.295-0.69-0.244-1.478,0.136-2.124c0.38-0.648,1.046-1.075,1.792-1.153c140.308-14.547,238.64,38.786,296.425,86.099
						c62.595,51.254,92.444,106.763,92.738,107.316c0.37,0.699,0.367,1.536-0.009,2.23s-1.073,1.155-1.861,1.229
						C1667.483,2164.297,1652.342,2165,1637.454,2165z M1574.788,2130.624c0.163,0,0.328,0.009,0.496,0.03
						c3.119,0.353,7.013,4.771,15.155,14.763c4.229,5.191,10.622,13.036,12.65,13.566c24.322,1.868,49.754,1.716,75.577-0.468
						c-7.214-12.365-36.502-59.155-89.931-102.864c-56.618-46.313-152.657-98.487-289.498-85.262
						c4.734,9.796,22.008,42.623,56.09,77.633c37.353,38.37,103.14,87.295,204.438,102.541c1.326-0.66,3.836-5.594,5.349-8.567
						C1568.212,2135.914,1570.904,2130.624,1574.788,2130.624z"/>
				</g>
				<path d="M1434.608,2036.025c-0.312,0-0.631-0.062-0.935-0.194c-25.918-11.198-55.443-24.446-87.757-39.376
					c-1.184-0.549-1.701-1.951-1.153-3.134c0.548-1.185,1.953-1.697,3.134-1.155c32.278,14.916,61.768,28.148,87.648,39.33
					c1.198,0.516,1.749,1.907,1.232,3.104C1436.392,2035.492,1435.521,2036.025,1434.608,2036.025z"/>
				<path d="M1610.902,2124.015c-0.565,0-1.131-0.201-1.583-0.611c-33.293-30.119-121.544-65.151-122.426-65.494
					c-1.214-0.477-1.813-1.847-1.338-3.06c0.475-1.213,1.839-1.815,3.06-1.34c0.89,0.351,89.954,35.709,123.872,66.393
					c0.967,0.874,1.042,2.368,0.167,3.335C1612.188,2123.752,1611.547,2124.015,1610.902,2124.015z"/>
			</g>
		</g>
		<g>
			<path d="M1699.196,1885.212c-0.938,0-1.826-0.563-2.195-1.487c-0.482-1.213,0.109-2.585,1.32-3.067
				c116.847-46.527,215.584-121.243,285.535-216.074c0.771-1.047,2.248-1.273,3.302-0.498c1.049,0.775,1.273,2.253,0.498,3.302
				c-70.474,95.54-169.92,170.804-287.587,217.656C1699.782,1885.159,1699.487,1885.212,1699.196,1885.212z"/>
			<path d="M2059.3,1536.613c-0.294,0-0.593-0.055-0.881-0.171c-1.211-0.489-1.795-1.863-1.309-3.074
				c48.993-121.582,56.575-255.619,21.926-387.619c-0.331-1.261,0.423-2.553,1.684-2.883c1.257-0.332,2.551,0.422,2.884,1.683
				c34.909,132.99,27.262,268.053-22.113,390.585C2061.12,1536.055,2060.235,1536.613,2059.3,1536.613z"/>
			<path d="M1923.702,1796.86c-0.646,0-1.289-0.263-1.755-0.782c-0.874-0.969-0.796-2.46,0.173-3.334
				c72.583-65.406,127.575-143.711,163.448-232.738c47.907-118.888,57.919-250.501,28.95-380.609
				c-0.284-1.273,0.519-2.537,1.792-2.82c1.272-0.27,2.534,0.519,2.818,1.792c29.176,131.046,19.087,263.623-29.178,383.404
				c-36.145,89.698-91.548,168.588-164.668,234.481C1924.829,1796.66,1924.264,1796.86,1923.702,1796.86z"/>
			<path d="M1669.97,1914.005c-0.6,0-1.204-0.032-1.808-0.092c-4.641-0.475-8.819-2.728-11.767-6.344
				c-2.946-3.618-4.308-8.166-3.834-12.808c0.475-4.642,2.728-8.821,6.345-11.765s8.158-4.312,12.805-3.835
				c4.641,0.475,8.82,2.728,11.767,6.344c2.946,3.618,4.308,8.166,3.834,12.808c-0.475,4.642-2.728,8.821-6.345,11.765
				C1677.824,1912.64,1673.974,1914.005,1669.97,1914.005z M1660.058,1904.585c2.149,2.638,5.199,4.282,8.584,4.628
				c3.393,0.353,6.706-0.648,9.343-2.797c2.639-2.149,4.283-5.198,4.629-8.583c0.346-3.388-0.648-6.706-2.797-9.344
				c-2.15-2.64-5.199-4.285-8.584-4.63c-3.397-0.339-6.706,0.65-9.343,2.8c-2.639,2.149-4.284,5.198-4.629,8.583
				C1656.915,1898.628,1657.909,1901.947,1660.058,1904.585z"/>
			<path d="M2159.414,1385.244c-0.585,0-1.156-0.217-1.597-0.623c-0.593-0.542-0.867-1.351-0.73-2.142l5.151-29.665
				c0.15-0.862,0.763-1.57,1.594-1.84c0.832-0.268,1.745-0.062,2.373,0.544l21.997,21.246c0.587,0.567,0.839,1.397,0.668,2.198
				c-0.172,0.798-0.744,1.451-1.512,1.725c-13.36,4.785-27.206,8.443-27.344,8.479
				C2159.817,1385.219,2159.615,1385.244,2159.414,1385.244z M2166.129,1358.012l-3.752,21.61
				c4.287-1.204,11.896-3.422,19.788-6.123L2166.129,1358.012z"/>
			<path d="M2189.024,1332.644c-0.273,0-0.552-0.049-0.823-0.148c-0.553-0.208-13.583-5.196-16.131-17.655
				c-0.814-3.978,0.929-8.546,2.774-13.382c1.886-4.944,3.837-10.054,3.096-14.498c-0.582-3.487-4.082-7.038-7.788-10.799
				c-4.519-4.584-9.191-9.326-9.883-15.248c-0.537-4.6,2.903-9.363,6.231-13.968c2.722-3.768,5.537-7.661,5.363-10.405
				c-0.225-3.554-3.942-7.128-7.221-10.283c-2.506-2.41-4.67-4.49-5.559-6.715c-0.483-1.211,0.106-2.585,1.317-3.069
				c1.215-0.487,2.586,0.106,3.069,1.317c0.511,1.28,2.511,3.203,4.447,5.064c3.706,3.565,8.319,8,8.66,13.387
				c0.281,4.435-3.038,9.028-6.248,13.47c-2.798,3.874-5.693,7.877-5.369,10.654c0.504,4.312,4.597,8.465,8.555,12.483
				c4.059,4.116,8.255,8.373,9.083,13.333c0.952,5.71-1.328,11.687-3.342,16.961c-1.594,4.176-3.098,8.12-2.561,10.753
				c2.018,9.865,13.048,14.134,13.158,14.175c1.219,0.461,1.837,1.822,1.379,3.039
				C2190.878,1332.058,2189.98,1332.644,2189.024,1332.644z"/>
			<path d="M730.95,585.043c-0.53,0-1.063-0.178-1.504-0.542c-1.005-0.83-1.146-2.318-0.316-3.323
				c0.594-0.72,60.691-72.551,177.824-137.791c68.764-38.301,143.474-66.905,222.054-85.017
				c98.203-22.632,202.759-28.851,310.758-18.478c1.298,0.125,2.25,1.278,2.125,2.576c-0.126,1.298-1.252,2.278-2.577,2.124
				c-243.407-23.367-422.602,43.063-530.062,102.921c-116.365,64.814-175.894,135.962-176.481,136.673
				C732.305,584.75,731.629,585.043,730.95,585.043z"/>
			<path d="M842.175,531.01c-0.723,0-1.435-0.33-1.899-0.955c-0.777-1.047-0.558-2.525,0.489-3.302
				c101.616-75.415,265.134-163.981,467.152-157.432c1.303,0.042,2.326,1.132,2.284,2.435c-0.042,1.303-1.068,2.403-2.436,2.283
				c-200.627-6.411-363.171,81.54-464.186,156.505C843.158,530.858,842.664,531.01,842.175,531.01z"/>
			<path d="M1591.252,365.152c-0.965,0-1.923-0.113-2.866-0.369c-4.29-1.165-7.567-5.788-10.737-10.26
				c-2.763-3.9-5.619-7.93-8.35-8.518c-4.25-0.915-9.496,1.621-14.574,4.073c-5.207,2.513-10.595,5.122-15.553,4.294
				c-5.71-0.939-10.633-5.025-14.975-8.632c-3.44-2.857-6.688-5.553-9.352-5.892c-10.006-1.255-17.587,7.788-17.662,7.882
				c-0.827,1.001-2.312,1.151-3.322,0.325c-1.007-0.826-1.156-2.311-0.332-3.318c0.373-0.457,9.301-11.173,21.912-9.575
				c4.029,0.512,7.79,3.637,11.772,6.944c4.071,3.381,8.28,6.877,12.726,7.608c3.496,0.556,7.979-1.594,12.734-3.888
				c5.795-2.797,11.787-5.694,17.62-4.437c4.528,0.975,7.925,5.767,11.21,10.403c2.688,3.793,5.466,7.714,8.121,8.436
				c3.436,0.929,8.018-1.432,12.062-3.519c3.088-1.596,5.756-2.973,8.148-3.097c1.276-0.099,2.412,0.934,2.48,2.237
				c0.068,1.303-0.933,2.412-2.236,2.481c-1.375,0.072-3.842,1.344-6.227,2.574C1600.109,362.835,1595.617,365.152,1591.252,365.152
				z"/>
			<path d="M821.247,633.268c-14.598,0-26.475-11.876-26.475-26.473c0-14.597,11.876-26.474,26.475-26.474
				c14.597,0,26.473,11.876,26.473,26.474c0,1.305-1.057,2.361-2.361,2.361c-1.304,0-2.361-1.056-2.361-2.361
				c0-11.994-9.757-21.751-21.751-21.751c-11.994,0-21.752,9.757-21.752,21.751c0,11.994,9.758,21.751,21.752,21.751
				c1.304,0,2.361,1.056,2.361,2.361C823.608,632.211,822.551,633.268,821.247,633.268z"/>
		</g>
	</g>
</g>
</svg>
